<svg xmlns="http://www.w3.org/2000/svg" width="51.907" height="62.216" viewBox="0 0 51.907 62.216">
  <g id="_1077114" data-name="1077114" transform="translate(0 0)">
    <path id="Path_7" data-name="Path 7" d="M102.017,29.97a14.5,14.5,0,0,0,10.6-4.39,14.5,14.5,0,0,0,4.39-10.6,14.5,14.5,0,0,0-4.39-10.6,14.982,14.982,0,0,0-21.19,0,14.5,14.5,0,0,0-4.39,10.595,14.5,14.5,0,0,0,4.391,10.6A14.5,14.5,0,0,0,102.017,29.97Zm0,0" transform="translate(-76.456)"/>
    <path id="Path_8" data-name="Path 8" d="M51.781,265.1a37.014,37.014,0,0,0-.5-3.931,30.973,30.973,0,0,0-.967-3.953,19.522,19.522,0,0,0-1.625-3.686,13.91,13.91,0,0,0-2.45-3.193,10.8,10.8,0,0,0-3.52-2.211,12.164,12.164,0,0,0-4.493-.813,4.561,4.561,0,0,0-2.436,1.033c-.73.476-1.584,1.027-2.537,1.636a14.539,14.539,0,0,1-3.283,1.446,12.748,12.748,0,0,1-8.03,0,14.5,14.5,0,0,1-3.28-1.446c-.944-.6-1.8-1.154-2.539-1.637a4.554,4.554,0,0,0-2.435-1.033,12.148,12.148,0,0,0-4.493.814,10.794,10.794,0,0,0-3.52,2.211,13.912,13.912,0,0,0-2.449,3.193,19.561,19.561,0,0,0-1.625,3.687,31.048,31.048,0,0,0-.966,3.952,36.883,36.883,0,0,0-.5,3.933C.042,266.3,0,267.532,0,268.78A10.331,10.331,0,0,0,3.068,276.6a11.045,11.045,0,0,0,7.907,2.884H40.932a11.043,11.043,0,0,0,7.906-2.884,10.326,10.326,0,0,0,3.069-7.816c0-1.254-.043-2.49-.126-3.675Zm0,0" transform="translate(0 -217.263)"/>
  </g>
</svg>
