<svg xmlns="http://www.w3.org/2000/svg" width="60.661" height="42.653" viewBox="0 0 60.661 42.653">
  <g id="_545705" data-name="545705" transform="translate(0 -76)">
    <g id="Group_8" data-name="Group 8" transform="translate(0 94.957)">
      <g id="Group_7" data-name="Group 7">
        <path id="Path_9" data-name="Path 9" d="M58.292,236H2.37a2.37,2.37,0,1,0,0,4.739H58.292a2.37,2.37,0,1,0,0-4.739Z" transform="translate(0 -236)"/>
      </g>
    </g>
    <g id="Group_10" data-name="Group 10" transform="translate(0 76)">
      <g id="Group_9" data-name="Group 9">
        <path id="Path_10" data-name="Path 10" d="M58.292,76H2.37a2.37,2.37,0,0,0,0,4.739H58.292a2.37,2.37,0,1,0,0-4.739Z" transform="translate(0 -76)"/>
      </g>
    </g>
    <g id="Group_12" data-name="Group 12" transform="translate(0 113.913)">
      <g id="Group_11" data-name="Group 11" transform="translate(0 0)">
        <path id="Path_11" data-name="Path 11" d="M58.292,396H2.37a2.37,2.37,0,1,0,0,4.739H58.292a2.37,2.37,0,1,0,0-4.739Z" transform="translate(0 -396)"/>
      </g>
    </g>
  </g>
</svg>

