<svg xmlns="http://www.w3.org/2000/svg" width="64.596" height="45.217" viewBox="0 0 64.596 45.217">
  <path id="ic_supervisor_account_24px" d="M48.832,27.609a8.074,8.074,0,1,0-8.074-8.074A8.05,8.05,0,0,0,48.832,27.609Zm-24.223-3.23a9.689,9.689,0,1,0-9.689-9.689A9.649,9.649,0,0,0,24.609,24.379Zm24.223,9.689c-5.911,0-17.764,2.971-17.764,8.882v7.267H66.6V42.95C66.6,37.04,54.743,34.068,48.832,34.068Zm-24.223-3.23C17.083,30.838,2,34.617,2,42.143v8.074H24.609V42.95c0-2.745,1.066-7.558,7.655-11.207A39.672,39.672,0,0,0,24.609,30.838Z" transform="translate(-2 -5)"/>
</svg>
