<svg xmlns="http://www.w3.org/2000/svg" width="63.995" height="61" viewBox="0 0 63.995 61">
  <g id="_709640" data-name="709640" transform="translate(0 -10.67)">
    <g id="Group_2" data-name="Group 2" transform="translate(41.026 56.725)">
      <g id="Group_1" data-name="Group 1">
        <path id="Path_3" data-name="Path 3" d="M299.824,338.862a7.472,7.472,0,1,0,7.472,7.472A7.56,7.56,0,0,0,299.824,338.862Z" transform="translate(-292.352 -338.862)"/>
      </g>
    </g>
    <g id="Group_4" data-name="Group 4" transform="translate(0 10.67)">
      <g id="Group_3" data-name="Group 3">
        <path id="Path_4" data-name="Path 4" d="M61.647,21.088c-.144,0-.359-.072-.575-.072H15.807L15.088,16.2A6.434,6.434,0,0,0,8.694,10.67H2.874a2.874,2.874,0,1,0,0,5.748h5.82a.764.764,0,0,1,.718.647l4.455,30.32a7.878,7.878,0,0,0,7.76,6.682H51.516a7.985,7.985,0,0,0,7.76-6.323l4.67-23.351A2.84,2.84,0,0,0,61.647,21.088Z" transform="translate(0 -10.67)"/>
      </g>
    </g>
    <g id="Group_6" data-name="Group 6" transform="translate(15.587 56.725)">
      <g id="Group_5" data-name="Group 5">
        <path id="Path_5" data-name="Path 5" d="M125.661,345.975a7.429,7.429,0,0,0-7.4-7.113,7.515,7.515,0,0,0-7.185,7.76,7.364,7.364,0,0,0,7.329,7.113h.144A7.456,7.456,0,0,0,125.661,345.975Z" transform="translate(-111.07 -338.862)"/>
      </g>
    </g>
  </g>
</svg>
